<svg width="360" height="144" viewBox="0 0 360 144" fill="none" xmlns="http://www.w3.org/2000/svg">
<path fill-rule="evenodd" clip-rule="evenodd" d="M360 60L351.3 53.3333C342.9 46.6667 325.8 33.3333 308.7 30C291.3 26.6667 274.2 33.3333 257.1 43.3333C240 53.3333 222.9 66.6667 205.8 73.3333C188.7 80 171.3 80 154.2 73.3333C137.1 66.6667 120 53.3333 102.9 56.6667C85.8 60 68.7 80 51.3 73.3333C34.2 66.6667 17.1 33.3333 8.69998 16.6667L0 0L0 200H8.69998C17.1 200 34.2 200 51.3 200C68.7 200 85.8 200 102.9 200C120 200 137.1 200 154.2 200C171.3 200 188.7 200 205.8 200C222.9 200 240 200 257.1 200C274.2 200 291.3 200 308.7 200C325.8 200 342.9 200 351.3 200H360L360 60Z" fill="#93D2F3"/>
<path fill-rule="evenodd" clip-rule="evenodd" d="M360 76L351.3 69.3333C342.9 62.6667 325.8 49.3333 308.7 46C291.3 42.6667 274.2 49.3333 257.1 59.3333C240 69.3333 222.9 82.6667 205.8 89.3333C188.7 96 171.3 96 154.2 89.3333C137.1 82.6667 120 69.3333 102.9 72.6667C85.8 76 68.7 96 51.3 89.3333C34.2 82.6667 17.1 49.3333 8.69998 32.6667L0 16L0 216H8.69998C17.1 216 34.2 216 51.3 216C68.7 216 85.8 216 102.9 216C120 216 137.1 216 154.2 216C171.3 216 188.7 216 205.8 216C222.9 216 240 216 257.1 216C274.2 216 291.3 216 308.7 216C325.8 216 342.9 216 351.3 216H360L360 76Z" fill="#2E3B62"/>
</svg>
