<svg width="360" height="144" viewBox="0 0 360 144" fill="none" xmlns="http://www.w3.org/2000/svg">
<path fill-rule="evenodd" clip-rule="evenodd" d="M0 60L8.7 53.3333C17.1 46.6667 34.2 33.3333 51.3 30C68.7 26.6667 85.8 33.3333 102.9 43.3333C120 53.3333 137.1 66.6667 154.2 73.3333C171.3 80 188.7 80 205.8 73.3333C222.9 66.6667 240 53.3333 257.1 56.6667C274.2 60 291.3 80 308.7 73.3333C325.8 66.6667 342.9 33.3333 351.3 16.6667L360 0L360 200H351.3C342.9 200 325.8 200 308.7 200C291.3 200 274.2 200 257.1 200C240 200 222.9 200 205.8 200C188.7 200 171.3 200 154.2 200C137.1 200 120 200 102.9 200C85.8 200 68.7 200 51.3 200C34.2 200 17.1 200 8.7 200H0L0 60Z" fill="#46A6DD"/>
<path fill-rule="evenodd" clip-rule="evenodd" d="M0 76L8.7 69.3333C17.1 62.6667 34.2 49.3333 51.3 46C68.7 42.6667 85.8 49.3333 102.9 59.3333C120 69.3333 137.1 82.6667 154.2 89.3333C171.3 96 188.7 96 205.8 89.3333C222.9 82.6667 240 69.3333 257.1 72.6667C274.2 76 291.3 96 308.7 89.3333C325.8 82.6667 342.9 49.3333 351.3 32.6667L360 16L360 216H351.3C342.9 216 325.8 216 308.7 216C291.3 216 274.2 216 257.1 216C240 216 222.9 216 205.8 216C188.7 216 171.3 216 154.2 216C137.1 216 120 216 102.9 216C85.8 216 68.7 216 51.3 216C34.2 216 17.1 216 8.7 216H0L0 76Z" fill="#0E66AE"/>
</svg>
